<svg enable-background="new 0 0 76.00 76.00" height="76" viewBox="0 0 76 76" width="76" xmlns="http://www.w3.org/2000/svg"><path d="m25.3333 23.75h25.3334c.8744 0 1.1874 3.5625 1.1874 3.5625h-27.7083s.3131-3.5625 1.1875-3.5625zm10.2917-3.9583h4.75c.4372 0 1.5833 1.1461 1.5833 1.5833s-1.1461 1.5834-1.5833 1.5834h-4.75c-.4372 0-1.5834-1.1462-1.5834-1.5834s1.1462-1.5833 1.5834-1.5833zm-7.9167 8.7083h20.5833c.8745 0 1.5834.7089 1.5834 1.5834l-1.5834 23.75c0 .8744-.7088 1.5833-1.5833 1.5833h-17.4166c-.8745 0-1.5834-.7089-1.5834-1.5833l-1.5833-23.75c0-.8745.7089-1.5834 1.5833-1.5834zm2.375 3.1667.3959 20.5833h2.7708l-.3958-20.5833zm6.3334 0v20.5833h3.1666v-20.5833zm6.7291 0-.3958 20.5833h2.7708l.3959-20.5833z" stroke-linejoin="round" stroke-width=".2"/></svg>